<svg id="visual" viewBox="0 0 960 600" width="960" height="600" xmlns="http://www.w3.org/2000/svg" xmlns:xlink="http://www.w3.org/1999/xlink" version="1.1"><rect x="0" y="0" width="960" height="600" fill="#0270bd"></rect><path d="M0 145L26.7 154.5C53.3 164 106.7 183 160 186C213.3 189 266.7 176 320 185.2C373.3 194.3 426.7 225.7 480 218.3C533.3 211 586.7 165 640 147C693.3 129 746.7 139 800 139.3C853.3 139.7 906.7 130.3 933.3 125.7L960 121L960 601L933.3 601C906.7 601 853.3 601 800 601C746.7 601 693.3 601 640 601C586.7 601 533.3 601 480 601C426.7 601 373.3 601 320 601C266.7 601 213.3 601 160 601C106.7 601 53.3 601 26.7 601L0 601Z" fill="#802e2a"></path><path d="M0 228L26.7 233.5C53.3 239 106.7 250 160 245.3C213.3 240.7 266.7 220.3 320 199.5C373.3 178.7 426.7 157.3 480 151.8C533.3 146.3 586.7 156.7 640 165.8C693.3 175 746.7 183 800 187.8C853.3 192.7 906.7 194.3 933.3 195.2L960 196L960 601L933.3 601C906.7 601 853.3 601 800 601C746.7 601 693.3 601 640 601C586.7 601 533.3 601 480 601C426.7 601 373.3 601 320 601C266.7 601 213.3 601 160 601C106.7 601 53.3 601 26.7 601L0 601Z" fill="#973630"></path><path d="M0 224L26.7 218.2C53.3 212.3 106.7 200.7 160 196.3C213.3 192 266.7 195 320 202.5C373.3 210 426.7 222 480 230.8C533.3 239.7 586.7 245.3 640 243.2C693.3 241 746.7 231 800 237.7C853.3 244.3 906.7 267.7 933.3 279.3L960 291L960 601L933.3 601C906.7 601 853.3 601 800 601C746.7 601 693.3 601 640 601C586.7 601 533.3 601 480 601C426.7 601 373.3 601 320 601C266.7 601 213.3 601 160 601C106.7 601 53.3 601 26.7 601L0 601Z" fill="#ae3f36"></path><path d="M0 305L26.7 299.8C53.3 294.7 106.7 284.3 160 275.2C213.3 266 266.7 258 320 263.2C373.3 268.3 426.7 286.7 480 296.5C533.3 306.3 586.7 307.7 640 310.8C693.3 314 746.7 319 800 326C853.3 333 906.7 342 933.3 346.5L960 351L960 601L933.3 601C906.7 601 853.3 601 800 601C746.7 601 693.3 601 640 601C586.7 601 533.3 601 480 601C426.7 601 373.3 601 320 601C266.7 601 213.3 601 160 601C106.7 601 53.3 601 26.7 601L0 601Z" fill="#bd5a50"></path><path d="M0 332L26.7 322.2C53.3 312.3 106.7 292.7 160 284C213.3 275.3 266.7 277.7 320 296.5C373.3 315.3 426.7 350.7 480 357.8C533.3 365 586.7 344 640 342.2C693.3 340.3 746.7 357.7 800 352.7C853.3 347.7 906.7 320.3 933.3 306.7L960 293L960 601L933.3 601C906.7 601 853.3 601 800 601C746.7 601 693.3 601 640 601C586.7 601 533.3 601 480 601C426.7 601 373.3 601 320 601C266.7 601 213.3 601 160 601C106.7 601 53.3 601 26.7 601L0 601Z" fill="#ca736a"></path><path d="M0 314L26.7 324.8C53.3 335.7 106.7 357.3 160 366.5C213.3 375.7 266.7 372.3 320 374.7C373.3 377 426.7 385 480 381.7C533.3 378.3 586.7 363.7 640 363.5C693.3 363.3 746.7 377.7 800 373C853.3 368.3 906.7 344.7 933.3 332.8L960 321L960 601L933.3 601C906.7 601 853.3 601 800 601C746.7 601 693.3 601 640 601C586.7 601 533.3 601 480 601C426.7 601 373.3 601 320 601C266.7 601 213.3 601 160 601C106.7 601 53.3 601 26.7 601L0 601Z" fill="#ca736a"></path><path d="M0 428L26.7 416.3C53.3 404.7 106.7 381.3 160 377.5C213.3 373.7 266.7 389.3 320 392.2C373.3 395 426.7 385 480 389.8C533.3 394.7 586.7 414.3 640 411.7C693.3 409 746.7 384 800 377.3C853.3 370.7 906.7 382.3 933.3 388.2L960 394L960 601L933.3 601C906.7 601 853.3 601 800 601C746.7 601 693.3 601 640 601C586.7 601 533.3 601 480 601C426.7 601 373.3 601 320 601C266.7 601 213.3 601 160 601C106.7 601 53.3 601 26.7 601L0 601Z" fill="#ca736a"></path><path d="M0 463L26.7 455.8C53.3 448.7 106.7 434.3 160 436.5C213.3 438.7 266.7 457.3 320 453C373.3 448.7 426.7 421.3 480 421.3C533.3 421.3 586.7 448.7 640 449.7C693.3 450.7 746.7 425.3 800 424.8C853.3 424.3 906.7 448.7 933.3 460.8L960 473L960 601L933.3 601C906.7 601 853.3 601 800 601C746.7 601 693.3 601 640 601C586.7 601 533.3 601 480 601C426.7 601 373.3 601 320 601C266.7 601 213.3 601 160 601C106.7 601 53.3 601 26.7 601L0 601Z" fill="#bd5a50"></path><path d="M0 499L26.7 495.3C53.3 491.7 106.7 484.3 160 478C213.3 471.7 266.7 466.3 320 464.3C373.3 462.3 426.7 463.7 480 468.3C533.3 473 586.7 481 640 483C693.3 485 746.7 481 800 477.7C853.3 474.3 906.7 471.7 933.3 470.3L960 469L960 601L933.3 601C906.7 601 853.3 601 800 601C746.7 601 693.3 601 640 601C586.7 601 533.3 601 480 601C426.7 601 373.3 601 320 601C266.7 601 213.3 601 160 601C106.7 601 53.3 601 26.7 601L0 601Z" fill="#ae3f36"></path><path d="M0 522L26.7 517.3C53.3 512.7 106.7 503.3 160 504.2C213.3 505 266.7 516 320 514.3C373.3 512.7 426.7 498.3 480 493.3C533.3 488.3 586.7 492.7 640 500.7C693.3 508.7 746.7 520.3 800 527.3C853.3 534.3 906.7 536.7 933.3 537.8L960 539L960 601L933.3 601C906.7 601 853.3 601 800 601C746.7 601 693.3 601 640 601C586.7 601 533.3 601 480 601C426.7 601 373.3 601 320 601C266.7 601 213.3 601 160 601C106.7 601 53.3 601 26.7 601L0 601Z" fill="#973630"></path><path d="M0 571L26.7 567.5C53.3 564 106.7 557 160 550.3C213.3 543.7 266.7 537.3 320 540.7C373.3 544 426.7 557 480 560C533.3 563 586.7 556 640 556C693.3 556 746.7 563 800 566.3C853.3 569.7 906.7 569.3 933.3 569.2L960 569L960 601L933.3 601C906.7 601 853.3 601 800 601C746.7 601 693.3 601 640 601C586.7 601 533.3 601 480 601C426.7 601 373.3 601 320 601C266.7 601 213.3 601 160 601C106.7 601 53.3 601 26.7 601L0 601Z" fill="#802e2a"></path></svg>