<svg id="visual" viewBox="0 0 900 600" width="900" height="600" xmlns="http://www.w3.org/2000/svg" xmlns:xlink="http://www.w3.org/1999/xlink" version="1.1"><rect x="0" y="0" width="900" height="600" fill="#0270bd"></rect><path d="M0 281L25 287.7C50 294.3 100 307.7 150 309.8C200 312 250 303 300 309.5C350 316 400 338 450 332.8C500 327.7 550 295.3 600 282.7C650 270 700 277 750 277.3C800 277.7 850 271.3 875 268.2L900 265L900 601L875 601C850 601 800 601 750 601C700 601 650 601 600 601C550 601 500 601 450 601C400 601 350 601 300 601C250 601 200 601 150 601C100 601 50 601 25 601L0 601Z" fill="#802e2a"></path><path d="M0 339L25 343C50 347 100 355 150 351.8C200 348.7 250 334.3 300 319.7C350 305 400 290 450 286.2C500 282.3 550 289.7 600 296.2C650 302.7 700 308.3 750 311.7C800 315 850 316 875 316.5L900 317L900 601L875 601C850 601 800 601 750 601C700 601 650 601 600 601C550 601 500 601 450 601C400 601 350 601 300 601C250 601 200 601 150 601C100 601 50 601 25 601L0 601Z" fill="#973630"></path><path d="M0 336L25 332C50 328 100 320 150 317C200 314 250 316 300 321.2C350 326.3 400 334.7 450 341C500 347.3 550 351.7 600 350.2C650 348.7 700 341.3 750 346C800 350.7 850 367.3 875 375.7L900 384L900 601L875 601C850 601 800 601 750 601C700 601 650 601 600 601C550 601 500 601 450 601C400 601 350 601 300 601C250 601 200 601 150 601C100 601 50 601 25 601L0 601Z" fill="#ae3f36"></path><path d="M0 393L25 389.5C50 386 100 379 150 372.5C200 366 250 360 300 363.5C350 367 400 380 450 387C500 394 550 395 600 397.3C650 399.7 700 403.3 750 408.2C800 413 850 419 875 422L900 425L900 601L875 601C850 601 800 601 750 601C700 601 650 601 600 601C550 601 500 601 450 601C400 601 350 601 300 601C250 601 200 601 150 601C100 601 50 601 25 601L0 601Z" fill="#bd5a50"></path><path d="M0 412L25 405.2C50 398.3 100 384.7 150 378.7C200 372.7 250 374.3 300 387.5C350 400.7 400 425.3 450 430.3C500 435.3 550 420.7 600 419.3C650 418 700 430 750 426.5C800 423 850 404 875 394.5L900 385L900 601L875 601C850 601 800 601 750 601C700 601 650 601 600 601C550 601 500 601 450 601C400 601 350 601 300 601C250 601 200 601 150 601C100 601 50 601 25 601L0 601Z" fill="#ca736a"></path><path d="M0 400L25 407.5C50 415 100 430 150 436.3C200 442.7 250 440.3 300 442C350 443.7 400 449.3 450 447C500 444.7 550 434.3 600 434.2C650 434 700 444 750 440.7C800 437.3 850 420.7 875 412.3L900 404L900 601L875 601C850 601 800 601 750 601C700 601 650 601 600 601C550 601 500 601 450 601C400 601 350 601 300 601C250 601 200 601 150 601C100 601 50 601 25 601L0 601Z" fill="#ca736a"></path><path d="M0 479L25 471C50 463 100 447 150 444.3C200 441.7 250 452.3 300 454.2C350 456 400 449 450 452.3C500 455.7 550 469.3 600 467.5C650 465.7 700 448.3 750 443.7C800 439 850 447 875 451L900 455L900 601L875 601C850 601 800 601 750 601C700 601 650 601 600 601C550 601 500 601 450 601C400 601 350 601 300 601C250 601 200 601 150 601C100 601 50 601 25 601L0 601Z" fill="#ca736a"></path><path d="M0 504L25 498.8C50 493.7 100 483.3 150 484.8C200 486.3 250 499.7 300 496.7C350 493.7 400 474.3 450 474.3C500 474.3 550 493.7 600 494.5C650 495.3 700 477.7 750 477.3C800 477 850 494 875 502.5L900 511L900 601L875 601C850 601 800 601 750 601C700 601 650 601 600 601C550 601 500 601 450 601C400 601 350 601 300 601C250 601 200 601 150 601C100 601 50 601 25 601L0 601Z" fill="#bd5a50"></path><path d="M0 529L25 526.3C50 523.7 100 518.3 150 513.8C200 509.3 250 505.7 300 504.3C350 503 400 504 450 507.3C500 510.7 550 516.3 600 517.7C650 519 700 516 750 513.7C800 511.3 850 509.7 875 508.8L900 508L900 601L875 601C850 601 800 601 750 601C700 601 650 601 600 601C550 601 500 601 450 601C400 601 350 601 300 601C250 601 200 601 150 601C100 601 50 601 25 601L0 601Z" fill="#ae3f36"></path><path d="M0 545L25 541.8C50 538.7 100 532.3 150 533C200 533.7 250 541.3 300 540C350 538.7 400 528.3 450 524.8C500 521.3 550 524.7 600 530.3C650 536 700 544 750 548.8C800 553.7 850 555.3 875 556.2L900 557L900 601L875 601C850 601 800 601 750 601C700 601 650 601 600 601C550 601 500 601 450 601C400 601 350 601 300 601C250 601 200 601 150 601C100 601 50 601 25 601L0 601Z" fill="#973630"></path><path d="M0 579L25 576.5C50 574 100 569 150 564.3C200 559.7 250 555.3 300 557.7C350 560 400 569 450 571.2C500 573.3 550 568.7 600 568.8C650 569 700 574 750 576.3C800 578.7 850 578.3 875 578.2L900 578L900 601L875 601C850 601 800 601 750 601C700 601 650 601 600 601C550 601 500 601 450 601C400 601 350 601 300 601C250 601 200 601 150 601C100 601 50 601 25 601L0 601Z" fill="#802e2a"></path></svg>