<svg id="visual" viewBox="0 0 960 900" width="960" height="900" xmlns="http://www.w3.org/2000/svg" xmlns:xlink="http://www.w3.org/1999/xlink" version="1.1"><rect x="0" y="0" width="960" height="900" fill="#0270bd"></rect><path d="M0 218L26.7 232.3C53.3 246.7 106.7 275.3 160 280C213.3 284.7 266.7 265.3 320 279.2C373.3 293 426.7 340 480 328.8C533.3 317.7 586.7 248.3 640 221.2C693.3 194 746.7 209 800 209.7C853.3 210.3 906.7 196.7 933.3 189.8L960 183L960 901L933.3 901C906.7 901 853.3 901 800 901C746.7 901 693.3 901 640 901C586.7 901 533.3 901 480 901C426.7 901 373.3 901 320 901C266.7 901 213.3 901 160 901C106.7 901 53.3 901 26.7 901L0 901Z" fill="#802e2a"></path><path d="M0 343L26.7 351.3C53.3 359.7 106.7 376.3 160 369.2C213.3 362 266.7 331 320 299.5C373.3 268 426.7 236 480 228C533.3 220 586.7 236 640 249.8C693.3 263.7 746.7 275.3 800 282.3C853.3 289.3 906.7 291.7 933.3 292.8L960 294L960 901L933.3 901C906.7 901 853.3 901 800 901C746.7 901 693.3 901 640 901C586.7 901 533.3 901 480 901C426.7 901 373.3 901 320 901C266.7 901 213.3 901 160 901C106.7 901 53.3 901 26.7 901L0 901Z" fill="#973630"></path><path d="M0 336L26.7 327.2C53.3 318.3 106.7 300.7 160 294.2C213.3 287.7 266.7 292.3 320 303.7C373.3 315 426.7 333 480 346.3C533.3 359.7 586.7 368.3 640 365.2C693.3 362 746.7 347 800 357C853.3 367 906.7 402 933.3 419.5L960 437L960 901L933.3 901C906.7 901 853.3 901 800 901C746.7 901 693.3 901 640 901C586.7 901 533.3 901 480 901C426.7 901 373.3 901 320 901C266.7 901 213.3 901 160 901C106.7 901 53.3 901 26.7 901L0 901Z" fill="#ae3f36"></path><path d="M0 457L26.7 449.5C53.3 442 106.7 427 160 413.3C213.3 399.7 266.7 387.3 320 395.2C373.3 403 426.7 431 480 445.8C533.3 460.7 586.7 462.3 640 467C693.3 471.7 746.7 479.3 800 489.7C853.3 500 906.7 513 933.3 519.5L960 526L960 901L933.3 901C906.7 901 853.3 901 800 901C746.7 901 693.3 901 640 901C586.7 901 533.3 901 480 901C426.7 901 373.3 901 320 901C266.7 901 213.3 901 160 901C106.7 901 53.3 901 26.7 901L0 901Z" fill="#bd5a50"></path><path d="M0 498L26.7 483.3C53.3 468.7 106.7 439.3 160 426.5C213.3 413.7 266.7 417.3 320 445.7C373.3 474 426.7 527 480 537.7C533.3 548.3 586.7 516.7 640 513.8C693.3 511 746.7 537 800 529.5C853.3 522 906.7 481 933.3 460.5L960 440L960 901L933.3 901C906.7 901 853.3 901 800 901C746.7 901 693.3 901 640 901C586.7 901 533.3 901 480 901C426.7 901 373.3 901 320 901C266.7 901 213.3 901 160 901C106.7 901 53.3 901 26.7 901L0 901Z" fill="#ca736a"></path><path d="M0 472L26.7 488.2C53.3 504.3 106.7 536.7 160 550.5C213.3 564.3 266.7 559.7 320 563.2C373.3 566.7 426.7 578.3 480 573C533.3 567.7 586.7 545.3 640 545C693.3 544.7 746.7 566.3 800 559.3C853.3 552.3 906.7 516.7 933.3 498.8L960 481L960 901L933.3 901C906.7 901 853.3 901 800 901C746.7 901 693.3 901 640 901C586.7 901 533.3 901 480 901C426.7 901 373.3 901 320 901C266.7 901 213.3 901 160 901C106.7 901 53.3 901 26.7 901L0 901Z" fill="#ca736a"></path><path d="M0 643L26.7 625.5C53.3 608 106.7 573 160 567C213.3 561 266.7 584 320 588.2C373.3 592.3 426.7 577.7 480 585C533.3 592.3 586.7 621.7 640 617.7C693.3 613.7 746.7 576.3 800 566.3C853.3 556.3 906.7 573.7 933.3 582.3L960 591L960 901L933.3 901C906.7 901 853.3 901 800 901C746.7 901 693.3 901 640 901C586.7 901 533.3 901 480 901C426.7 901 373.3 901 320 901C266.7 901 213.3 901 160 901C106.7 901 53.3 901 26.7 901L0 901Z" fill="#ca736a"></path><path d="M0 695L26.7 684.2C53.3 673.3 106.7 651.7 160 654.8C213.3 658 266.7 686 320 679.5C373.3 673 426.7 632 480 632C533.3 632 586.7 673 640 674.7C693.3 676.3 746.7 638.7 800 638C853.3 637.3 906.7 673.7 933.3 691.8L960 710L960 901L933.3 901C906.7 901 853.3 901 800 901C746.7 901 693.3 901 640 901C586.7 901 533.3 901 480 901C426.7 901 373.3 901 320 901C266.7 901 213.3 901 160 901C106.7 901 53.3 901 26.7 901L0 901Z" fill="#bd5a50"></path><path d="M0 749L26.7 743.3C53.3 737.7 106.7 726.3 160 716.8C213.3 707.3 266.7 699.7 320 696.8C373.3 694 426.7 696 480 702.8C533.3 709.7 586.7 721.3 640 724.3C693.3 727.3 746.7 721.7 800 716.8C853.3 712 906.7 708 933.3 706L960 704L960 901L933.3 901C906.7 901 853.3 901 800 901C746.7 901 693.3 901 640 901C586.7 901 533.3 901 480 901C426.7 901 373.3 901 320 901C266.7 901 213.3 901 160 901C106.7 901 53.3 901 26.7 901L0 901Z" fill="#ae3f36"></path><path d="M0 783L26.7 776.2C53.3 769.3 106.7 755.7 160 757C213.3 758.3 266.7 774.7 320 772C373.3 769.3 426.7 747.7 480 740.2C533.3 732.7 586.7 739.3 640 751.5C693.3 763.7 746.7 781.3 800 791.8C853.3 802.3 906.7 805.7 933.3 807.3L960 809L960 901L933.3 901C906.7 901 853.3 901 800 901C746.7 901 693.3 901 640 901C586.7 901 533.3 901 480 901C426.7 901 373.3 901 320 901C266.7 901 213.3 901 160 901C106.7 901 53.3 901 26.7 901L0 901Z" fill="#973630"></path><path d="M0 857L26.7 851.7C53.3 846.3 106.7 835.7 160 825.7C213.3 815.7 266.7 806.3 320 811.3C373.3 816.3 426.7 835.7 480 840.2C533.3 844.7 586.7 834.3 640 834.5C693.3 834.7 746.7 845.3 800 850.3C853.3 855.3 906.7 854.7 933.3 854.3L960 854L960 901L933.3 901C906.7 901 853.3 901 800 901C746.7 901 693.3 901 640 901C586.7 901 533.3 901 480 901C426.7 901 373.3 901 320 901C266.7 901 213.3 901 160 901C106.7 901 53.3 901 26.7 901L0 901Z" fill="#802e2a"></path></svg>